<?xml version="1.0" encoding="utf-8"?>
<!-- Generator: Adobe Illustrator 26.0.1, SVG Export Plug-In . SVG Version: 6.00 Build 0)  -->
<svg version="1.1" xmlns="http://www.w3.org/2000/svg" xmlns:xlink="http://www.w3.org/1999/xlink" x="0px" y="0px"
	 viewBox="0 0 438.8 453.4" style="enable-background:new 0 0 438.8 453.4;" xml:space="preserve">
<style type="text/css">
	.st0{fill:#D4D4D4;}
	.st1{fill:#FFFFFF;}
	.st2{fill:#F87171;}
	.st3{fill:#A3A3A3;}
</style>
<g id="Layer_2">
	<polygon class="st0" points="393.9,175.2 139.9,174.7 43.8,174.5 42.5,204.4 9.3,204.4 7.4,297.3 41.2,311.6 40.5,375.2 
		217.8,442.8 389.3,376.5 396.5,307.7 431.5,298.6 430.2,204.4 393.9,204.4 	"/>
	<polygon class="st0" points="137.9,83.6 112.6,82.3 112,172.6 139.9,174.7 139.9,79.7 	"/>
	<polygon class="st0" points="297.7,84.2 298.4,173.2 328.3,173.2 327,82.3 	"/>
</g>
<g id="Layer_3">
	<circle class="st1" cx="152.9" cy="233" r="29.9"/>
	<circle class="st1" cx="284.7" cy="234.3" r="30.5"/>
	<circle class="st2" cx="125.6" cy="45.9" r="38.3"/>
	<circle class="st2" cx="312" cy="45.9" r="35.7"/>
	<path class="st2" d="M149.6,360.9c0,0,74,81.2,139.6-3.2C289.3,357.7,215.2,325.2,149.6,360.9z"/>
	<path class="st3" d="M125.4,307.9l185.3,0.9L292.1,356c-30.6-14.8-126.9-9.7-146.8-1.3L125.4,307.9z"/>
	<path class="st3" d="M339.6,431.4"/>
</g>
<g id="Layer_1">
	<path d="M401.1,199.1v-29.9h-68.7V84.8c14.3-7.2,24.1-22,24.1-39.1c0-24.1-19.6-43.8-43.8-43.8S269,21.6,269,45.8
		c0,17.1,9.8,31.8,24.1,39.1v84.4H145.7V84.8c14.3-7.2,24.1-22,24.1-39.1c0-24.1-19.6-43.8-43.8-43.8S82.3,21.6,82.3,45.8
		c0,17.1,9.8,31.8,24.1,39.1v84.4H37.7v29.9H2.2v104.4L37.7,316v64.9l181.7,69.9l181.7-69.9V316l35.5-12.4V199.1H401.1z M37.7,302.8
		l-23-8.1v-83.2h23V302.8z M281.4,45.8c0-17.3,14.1-31.3,31.3-31.3S344,28.6,344,45.8s-14,31.3-31.3,31.3
		C295.5,77.1,281.4,63,281.4,45.8z M320,88.9v80.3h-14.5V88.9c2.4,0.4,4.8,0.6,7.2,0.6S317.6,89.3,320,88.9z M94.7,45.8
		c0-17.3,14.1-31.3,31.3-31.3s31.3,14.1,31.3,31.3S143.2,77.1,126,77.1S94.7,63,94.7,45.8L94.7,45.8z M133.3,88.9v80.3h-14.5V88.9
		c2.4,0.4,4.8,0.6,7.2,0.6C128.5,89.5,130.9,89.3,133.3,88.9z M388.6,372.3l-169.2,65.1L50.2,372.3V181.6h338.5L388.6,372.3z
		 M424.1,294.7l-23,8.1v-91.2h23V294.7z"/>
	<path d="M120,310.2c11,54.8,51.9,93,99.4,93s88.4-38.3,99.4-93l1.5-7.4H118.6L120,310.2z M219.4,390.8c-25.2,0-48.3-12.6-64.8-33.5
		c9.5-3.1,29.8-7.8,64.8-7.8c35.3,0,54.7,6,63.3,9.7C266.3,378.9,243.9,390.8,219.4,390.8z M304.8,315.2
		c-3.3,12.5-8.3,23.8-14.7,33.7c-9.2-4.4-30.6-11.9-70.7-11.9c-40.6,0-62.8,6.2-72.2,9.7c-5.7-9.4-10.2-20-13.3-31.5L304.8,315.2z"
		/>
	<path d="M153.3,272.4c21,0,38.2-17.1,38.2-38.2c0-21-17.1-38.2-38.2-38.2s-38.2,17.1-38.2,38.2S132.2,272.4,153.3,272.4z
		 M153.3,208.5c14.2,0,25.7,11.5,25.7,25.7s-11.5,25.7-25.7,25.7s-25.7-11.5-25.7-25.7S139.1,208.5,153.3,208.5z"/>
	<path d="M285.5,272.4c21,0,38.2-17.1,38.2-38.2c0-21-17.1-38.2-38.2-38.2c-21,0-38.2,17.1-38.2,38.2S264.5,272.4,285.5,272.4z
		 M285.5,208.5c14.2,0,25.7,11.5,25.7,25.7s-11.5,25.7-25.7,25.7s-25.7-11.5-25.7-25.7S271.4,208.5,285.5,208.5z"/>
	<circle cx="153.1" cy="234.5" r="6.7"/>
	<circle cx="285.1" cy="234.5" r="6.7"/>
</g>
</svg>
