<?xml version="1.0" encoding="utf-8"?>
<!-- Generator: Adobe Illustrator 26.0.1, SVG Export Plug-In . SVG Version: 6.00 Build 0)  -->
<svg version="1.1" id="Layer_1" xmlns="http://www.w3.org/2000/svg" xmlns:xlink="http://www.w3.org/1999/xlink" x="0px" y="0px"
	 viewBox="0 0 700 700" style="enable-background:new 0 0 700 700;" xml:space="preserve">
<style type="text/css">
	.st0{fill:#A3A3A3;}
</style>
<path class="st0" d="M564.5,593.4c-5.5-12.8-10.5-26.1-17.9-38.5c-13.8-23.8-30.7-45.9-47.2-67.9c-32.1-42.7-67-83-104.1-121.5
	c28.4-37.1,55-75.7,78.9-115.6c14.2-23.4,28.4-47.7,39.9-72.5c6-12.8,9.6-26.6,13.8-40.4c3.7-11.5,5.5-26.6,3.7-38.1
	c-0.9-6-7.8-8.7-12.4-5.5c-0.9,0.5-1.8,1.4-2.8,1.8c-0.9-1.4-2.3-2.8-4.6-2.8c-3.7,0-7.3,0.5-11,0.5c-0.9-0.5-1.8-0.9-2.8-1.8
	c-6.4-4.1-12.4-8.7-19.3-12.4c-8.7-4.6-18.3-0.5-21.1,8.7c-27.1,82.1-63.8,159.6-108.2,233.4c-28.9-26.1-59.2-51.4-90.4-74.3
	c-23.8-17.4-47.7-33.9-72-50c-22.9-15.6-45.9-31.6-69.7-45.9c-1.8-0.9-4.6,1.4-3.2,3.2c15.1,20.6,34.9,38.1,54.1,55.5
	c22,19.3,44.5,37.6,67,56.4c33,27.5,64.7,56.9,94.5,87.6c-40.8,64.2-87.1,125.2-136.2,183.5c-6.9,7.3-13.8,14.2-20.6,21.6
	c-12.4,13.8-25.2,27.5-36.2,42.7c-5.5,6-10.5,11.9-16.1,17.4c-3.2,3.2,1.4,7.3,4.6,4.6c0.5-0.5,0.9-0.9,1.4-1.4c0.5,0,1.4,0,1.8-0.5
	c22.5-16.1,43.6-34.9,64.7-52.7c22.5-18.8,44.9-37.6,66.5-57.3c39.9-35.8,76.6-74.8,110.5-116c32.6,35.3,62.8,72.5,90.8,111.9
	c15.1,21.6,28.9,44,43.6,66c7.8,11.9,17.4,22.5,25.7,33.9c7.3,10.5,18.8,22.5,30.3,28.9c5.5,2.8,11.5-0.5,11.9-6.9
	C573.2,619.1,569.6,604.4,564.5,593.4L564.5,593.4z"/>
</svg>
