<?xml version="1.0" encoding="utf-8"?>
<!-- Generator: Adobe Illustrator 26.0.1, SVG Export Plug-In . SVG Version: 6.00 Build 0)  -->
<svg version="1.1" xmlns="http://www.w3.org/2000/svg" xmlns:xlink="http://www.w3.org/1999/xlink" x="0px" y="0px"
	 viewBox="0 0 452 452" style="enable-background:new 0 0 452 452;" xml:space="preserve">
<style type="text/css">
	.st0{fill:#FDE047;}
</style>
<g id="Layer_2">
	<circle class="st0" cx="225" cy="224" r="213"/>
</g>
<g id="Layer_1">
	<path d="M226,2C166.6,2,109.6,25.6,67.6,67.6S2,166.6,2,226s23.6,116.4,65.6,158.4S166.6,450,226,450s116.4-23.6,158.4-65.6
		S450,285.4,450,226c0-39.3-10.4-77.9-30-112c-19.7-34.1-47.9-62.3-82-82C303.9,12.4,265.3,2,226,2L226,2z M226,427.6
		c-53.5,0-104.8-21.2-142.6-59.1c-37.8-37.8-59-89-59-142.5s21.2-104.8,59-142.6S172.5,24.3,226,24.3s104.8,21.2,142.5,59.1
		c37.8,37.8,59.1,89.1,59.1,142.6s-21.2,104.8-59.1,142.5C330.7,406.4,279.5,427.6,226,427.6z"/>
	<path d="M377.5,214.8c-6.2,0-11.2,5-11.2,11.2c0,50.1-26.7,96.5-70.2,121.5c-43.4,25.1-96.9,25.1-140.3,0S85.6,276.1,85.6,226
		c0-6.2-5-11.2-11.2-11.2s-11.2,5-11.2,11.2c0,58.1,31,111.9,81.4,140.9C195,396,257,396,307.4,366.9s81.4-82.8,81.4-140.9
		c0-3-1.2-5.8-3.3-7.9C383.4,216,380.5,214.8,377.5,214.8L377.5,214.8z"/>
	<path d="M189.8,168.4c0,24.6-13.3,44.5-29.6,44.5c-16.4,0-29.6-19.9-29.6-44.5s13.3-44.5,29.6-44.5
		C176.5,123.9,189.8,143.8,189.8,168.4"/>
	<path d="M321.5,168.4c0,24.6-13.3,44.5-29.6,44.5c-16.4,0-29.6-19.9-29.6-44.5s13.3-44.5,29.6-44.5
		C308.2,123.9,321.5,143.8,321.5,168.4"/>
</g>
</svg>
