<?xml version="1.0" encoding="utf-8"?>
<!-- Generator: Adobe Illustrator 26.0.1, SVG Export Plug-In . SVG Version: 6.00 Build 0)  -->
<svg version="1.1" id="Layer_1" xmlns="http://www.w3.org/2000/svg" xmlns:xlink="http://www.w3.org/1999/xlink" x="0px" y="0px"
	 viewBox="0 0 838 838" style="enable-background:new 0 0 838 838;" xml:space="preserve">
<style type="text/css">
	.st0{fill:#EF4444;}
</style>
<path class="st0" d="M642.3,611.1l-23.7,10.1l-5.5,4.7c-14.5,6.5-30.5,11.7-46.2,17.6l0,0c-1.1,0.6-2.3,1-3.5,1.2
	c-9.3,0.8-18.4,3.2-26.9,7.1c-6.3,2.5-13.1,4-19.9,4.3c-3.1,0.4-6.1,1.2-8.9,2.5c-3.5,1.4-7.2,2-11,1.8c-1.2-0.3-2.4-0.3-3.7,0
	c-5.8,2.2-12,3.2-18.3,3c-10.1,2.8-20.6,3.9-31.1,3.5c-9.2,0-18.3,2.7-27.7,2.5l0,0c-4.1,1.4-8.5,1.8-12.8,1.2
	c-2.6-0.4-5.2-0.4-7.8,0c-6.1,1.1-12.4,0-18.5,0.8c-6.2-0.2-12.3-0.7-18.4-1.6c-10.5,0-21-1-31.1-1.9c-32.2-2.7-64-8.1-95.2-16.3
	c-4.2-1.1-8.3-2.3-12.4-3.8c-6.2-2.9-12.7-5.1-19.4-6.5c-12.7-5-25.1-10.9-36.9-17.7c-10.6-6.5-20.8-13.4-31.1-20.8
	c-3-2.2-5.9-4.6-8.5-7.2c-7.5-7.2-14.5-15-20.8-23.3c-5-4-5.6-11.3-10.7-14.9c-1.8-4-3.7-7.8-5.4-11.9l0,0
	c-5.7-13.2-10.7-26.6-14.9-40.3c0-3.7,0-7.8-0.9-11c-1.5-11-2.2-22.1-2.1-33.2v-4c0-6.1,4-11.9,1.9-18.3c1.6-6.6,3.3-13.2,5.1-19.8
	c1.8-6.6,3.3-12,5.3-17.8s4.1-10.4,6.3-15.5l0,0c1.7-3.3,2.8-6.9,3.3-10.6c0.2-1.9,0.9-3.7,2.1-5.1c5.3-7.7,9.7-15.9,13.2-24.6
	c1.8-3.3,3.4-6.6,5.1-9.9l0,0c5.5-6,10.3-12.5,14.5-19.5c1.8-3.2,4.1-6.2,6.7-8.9c5.3-5.2,10.1-10.9,14.3-16.9
	c1.1-1.5,2.5-2.7,4-3.7c1.1-0.6,2.1-1.3,3-2.1c6.2-6.8,13.1-13,20.4-18.5c7-6,14.3-11.7,21.8-17c1.5-1.2,2.9-2.5,4-4l18.6-8.4l4-4.1
	c5.5-3,11.3-5.5,17.3-7.5c5.4-1.7,10.3-4.8,14.2-8.9l37.9-14.3h7.8l32.1-11.3l0,0c2.6-1.2,5.5-2,8.4-2.2c8.6-0.5,17-2.5,24.8-6.1
	c2,0.3,4,0.3,6,0c8.4-2,17-3.5,25.6-4.5c3.4-0.3,6.8-0.3,10.2,0c7.9-2.8,16.1-4.2,24.5-4.2c4.9-0.3,9.9-0.3,14.8,0
	c4.4,0,8.6-0.9,13-0.4c4.9,0.4,9.9,0.4,14.8,0c5.6-0.2,11.2,0.3,16.6,1.6c15.5,3.1,31.8,5.3,47.3,9.6c4.2,1.2,8.3,2.6,12.4,4.1l0,0
	c7.3,3.5,14.9,6.3,22.7,8.4c1.8,0.4,3.5,1.3,5,2.5c13,10.3,28.8,14.5,43.7,20.4l0,0c6.2,0.8,12.1,3.1,17.3,6.6
	c11.5,6.2,22.7,13,33.4,20.4c3,2.1,5.6,4.8,7.8,7.8c1.7,1.8,3.6,3.4,5.7,4.7c10.3,8,19.1,17.6,26.3,28.4c1.4,2.1,3.2,3.8,4.5,5.8
	l0,0c4.4,5.2,8.4,10.7,12.1,16.4c3.6,5,6.9,10.2,9.9,15.5c2.2,5.8,7.8,9.5,9.6,15.5c1.9,6.1,4.1,10.4,6.1,15.5s4.4,11.7,6.5,17.5
	c1.7,4.7,3.2,9.4,4.7,13.9s0.5,7.8,1,11.3l0,0c2,13.4,2.5,27,1.6,40.6c-2.2,13.3-5.7,26.3-10.6,38.9c-0.8,4.9-2.4,9.6-4.8,14
	c-4.8,9.4-10.1,18.5-16.1,27.2c0,0.5-1,0.9-1.2,1.3l0,0c-6.5,12-14.7,23-24.4,32.6c-13.5,16.2-29.2,30.4-46.6,42.2
	c-3.8,4.1-8.5,7.3-13.8,9.3C647.6,606.5,644.9,608.7,642.3,611.1L642.3,611.1z M429,245.8l-20.1,5.5c-6.9-1.2-13.3,3.6-20.2,1.6
	c-6.5,2.3-13.1,4.1-19.4,6.8c-6.5,2.1-13.2,3.4-20,3.8c-1.9,0-3.6,1.1-5.4,1.6l0,0c-1.7,0.7-3.6,1-5.4,1c-4.4-0.5-8.9,0-13.1,1.6
	c-1.7,0.8-3.6,1.2-5.4,1.2c-5.6-0.2-11.2,0.7-16.5,2.6c-1.2,0.1-2.4,0.1-3.7,0c-3.8-0.1-7-2.9-7.8-6.6c-0.3-1.9,0.4-3.8,1.9-5.1
	l14.8-6.5l4.8-4.6l21.9-8.6l5.8,0.5l4.4-4.5l38.9-14.1h6.8l33-11h6.6c4.1-0.9,8.1-2.1,12-3.6c4.3-1.8,8.9,0,12.8-1.5
	c4-1.5,10-0.5,14.6-2c8.4-2.2,17-3.1,25.7-2.7c2.5,0.1,4.9-0.3,7.2-1.2c1-0.7,1.8-1.5,2.6-2.4c-10.7-2.3-21.7-3-32.6-2.1
	c-5,0-9.8,0.7-14.8,1.2l0,0c-5.7,0.4-11.4,0.4-17,0c-8.3,4.4-18.1,1.8-27.1,4.9c-1.9,0.3-3.9,0.3-5.8,0l-19.1,5.8
	c-10.8-1.4-19.4,5.1-29.9,7.1h-6.4c-34.4,11.6-68.2,24.3-101.5,38.9l0,0c-2.1,2.2-4.5,4.1-7.2,5.7c-7,2.9-11.6,9.4-18.9,11.7
	c-4.4,6.3-12.9,7.8-17.3,13.8c-6.3,3.1-9.8,9.6-15.5,13.5c-12.8,9.4-20.5,23.3-31.1,34.5c-5,10-12.4,18.6-16.7,29
	c-3.6,8.6-7.8,17-11.7,25.4c-5.7,12.7-8.1,27.8-14.2,41.7v1.9l0,0c-3.2,13.9-5.1,28-5.8,42.3v12.9c0,4.3,0.9,8.6,0.9,12.9
	c0,6.1,4.1,11.7,3.1,18.2c-0.1,1.2,0.2,2.5,0.7,3.6c4.9,12,6.8,25.3,16,35.4l0,0c0.7,1,1.3,2.1,1.7,3.3c1.5,4.1,3.9,7.8,7,10.9
	c3.3,2.9,5.1,6.8,8.2,10c7.8,7.8,15.5,14.3,22.7,20.7l0,0c7,3.4,13.8,7.3,20.3,11.5c3.2,2,6.6,3.5,10.2,4.5c2.9,1.1,6,1.6,8.9,2.5
	c14.1,4.8,28.6,8.2,43.4,10.2c2.5,0.2,4.9,0.6,7.3,1.1c10.3,2.6,20.9,2.3,31.1,3.9c6.2-0.6,12.3-0.6,18.5,0c6.8-0.5,13.6-0.5,20.4,0
	c1.8,0,3.7-0.6,5.5-0.4l0,0c7.4-0.1,14.8-0.6,22.2-1.5c7.8,0,16-1.5,24-1.1c8.6-1.9,17.9-0.6,25.7-3.5l7.2,0.7l7.8-2.8h7.8l17.2-5.4
	h7.8c5.3-1.9,10.7-3.5,16.2-4.6c4.3-0.4,8.6-1.1,12.8-2.2c8.4-3.5,17.4-5.6,26.5-6.2c1.9-0.2,3.7-0.8,5.4-1.6
	c4.7-1.6,9.4-3.3,14.1-5.1l54-20.8l0,0c3-0.9,5.7-2.3,8.2-4.2c3.8-3.3,8.1-5.9,12.7-7.8c5-2.5,8.4-7.4,13.9-9.2l0,0
	c2.9-1.2,5.5-2.9,7.8-5.1c9-6.5,17.4-13.8,25.1-21.8c11.8-10,22.5-21.1,32-33.2c4.5-5.1,8.5-10.6,12.2-16.3c2.7-4.9,5.7-9.6,9-14.1
	c3.6-4.2,4.7-10.1,8.9-14.1l0,0c1.3-1.4,2.1-3.1,2.3-5c1.7-7.3,4.4-14.3,7.8-21c2.4-7,4.3-14.2,5.7-21.5c1.1-5.5,1.5-11.2,1.1-16.8
	c0-4.9-1.9-9.6-1.8-14.7c-0.5-4.3-1.6-8.6-3.5-12.5c-2.5-7-5.2-14-7.8-20.9c-1.4-3.5-3-6.8-4.6-10.3c-5.5-4.4-6.6-12-12.1-16.4l0,0
	c-7.7-9.8-16.5-18.6-26.4-26.3c-6.7-5.6-14.3-9.9-22.6-12.6h-1.5c-1.3,1.9,0.9,4.9-1.9,6.2c-2.5-0.1-4.9-1.5-6.2-3.7
	c-3.6-5.4-7.6-10.6-11.7-15.5l-27.4-9.6c-2.3-0.8-4.7-1.3-7.2-2l0,0c-5.2-1.9-10.6-3.5-16.1-4.6c-14.1-1.9-28-5.3-42.2-6.6
	s-27.2-0.9-40.8-1.9l0,0c-3.7-0.4-7.4-0.4-11.1,0c-9.2,1.3-18.4,2.1-27.7,2.3c-1.4,0.4-2.8,0.8-4.1,1.4l-1.8,0.5l0,0
	c-4.1,1.3-8.4,2-12.8,2C438.6,244.7,433.7,246.2,429,245.8L429,245.8z"/>
</svg>
