<?xml version="1.0" encoding="utf-8"?>
<!-- Generator: Adobe Illustrator 26.0.1, SVG Export Plug-In . SVG Version: 6.00 Build 0)  -->
<svg version="1.1" id="Layer_1" xmlns="http://www.w3.org/2000/svg" xmlns:xlink="http://www.w3.org/1999/xlink" x="0px" y="0px"
	 viewBox="0 0 408 408" style="enable-background:new 0 0 408 408;" xml:space="preserve">
<style type="text/css">
	.st0{fill:none;stroke:#000000;stroke-width:14;stroke-miterlimit:10;}
</style>
<path d="M44.4,156.4c1.5,1.5,3.4,2.2,5.4,2.2s3.9-0.7,5.4-2.2L97,114.6l41.8,41.8c1.5,1.5,3.4,2.2,5.4,2.2s3.9-0.7,5.4-2.2
	c3-3,3-7.8,0-10.8l-41.8-41.8L149.6,62c3-3,3-7.8,0-10.8s-7.8-3-10.8,0L97,93L55.2,51.2c-3-3-7.8-3-10.8,0s-3,7.8,0,10.8l41.8,41.8
	l-41.8,41.8C41.4,148.6,41.4,153.4,44.4,156.4L44.4,156.4z"/>
<path d="M305.7,254.9c-30.2,0-54.8,24.6-54.8,54.8c0,30.2,24.6,54.8,54.8,54.8c30.2,0,54.8-24.6,54.8-54.8
	C360.6,279.5,336,254.9,305.7,254.9L305.7,254.9z M305.7,349.3c-21.8,0-39.6-17.7-39.6-39.6s17.7-39.6,39.6-39.6
	c21.8,0,39.6,17.7,39.6,39.6S327.5,349.3,305.7,349.3L305.7,349.3z"/>
<line class="st0" x1="204" y1="407" x2="204" y2="-1"/>
<line class="st0" x1="2" y1="210" x2="406" y2="210"/>
</svg>
